#!OML:ASF F:\twosubjects\two\wednesday\Session 1\rory1.ASF
:FULLY-SPECIFIED
:DEGREES
199
root 7.13951 18.519 1.74431 8.82403 7.6686 4.81242
lowerback 1.32366 6.7493 -8.05186
upperback 1.3483 8.93716 -4.17447
thorax 0.116248 4.4292 -0.0200561
lowerneck -7.6411 -14.1649 -14.0459
upperneck 11.8516 -20.5967 19.5168
head 8.5303 -9.31839 6.21067
rclavicle -5.397e-014 3.89618e-014
rhumerus 2.98112 10.405 -112.449
rradius 12.0603
rwrist 51.0235
rhand -20.1572 32.3282
rfingers 7.12502
rthumb 6.18801 2.43862
lclavicle -5.397e-014 3.89618e-014
lhumerus -19.7314 2.44053 89.8762
lradius 30.467
lwrist -4.34273
lhand -24.9401 5.04067
lfingers 7.12502
lthumb 1.56944 35.0146
rfemur -33.6295 -0.739269 13.2576
rtibia 28.0755
rfoot -7.22662 -16.6742
rtoes -0.694098
lfemur -0.998748 -8.66501 -23.7102
ltibia 17.2916
lfoot -13.9058 -1.85841
ltoes -22.3811
200
root 7.11922 18.5242 1.90008 9.27792 7.98946 4.96642
lowerback 1.26869 6.59224 -8.33669
upperback 1.35148 8.73077 -4.08055
thorax 0.10621 4.32345 0.238788
lowerneck -7.68724 -14.1421 -13.9325
upperneck 11.21 -20.4725 19.5862
head 8.30179 -9.2748 6.23387
rclavicle -4.19436e-014 2.38542e-014
rhumerus 1.34713 1.48366 -112.776
rradius 10.4818
rwrist 58.0987
rhand -19.2317 32.1893
rfingers 7.12502
rthumb 7.08152 2.32772
lclavicle -4.19436e-014 2.38542e-014
lhumerus -20.2727 4.08046 89.5303
lradius 29.1906
lwrist -5.51255
lhand -24.4571 6.74641
lfingers 7.12502
lthumb 2.03594 36.7164
rfemur -33.7527 0.327568 12.5137
rtibia 25.4565
rfoot -6.59437 -17.7913
rtoes -1.28569
lfemur -0.722145 -8.57509 -23.5968
ltibia 16.7866
lfoot -13.3326 -2.38638
ltoes -22.4372
201
root 7.11136 18.5192 2.06854 9.4144 8.35689 5.01749
lowerback 1.38159 6.45822 -8.24042
upperback 1.44168 8.54768 -4.02742
thorax 0.154062 4.22977 0.242732
lowerneck -7.4112 -14.0997 -13.7068
upperneck 10.2705 -20.328 19.7379
head 7.9159 -9.24597 6.29334
rclavicle 8.44835e-015 7.95139e-015
rhumerus -0.147289 -0.0382389 -112.592
rradius 9.01022
rwrist 57.7539
rhand -19.3338 30.6054
rfingers 7.12502
rthumb 6.98292 0.740555
lclavicle 8.44835e-015 7.95139e-015
lhumerus -20.8854 5.99058 88.8273
lradius 27.9207
lwrist -7.7859
lhand -21.872 10.3172
lfingers 7.12502
lthumb 4.53241 40.2487
rfemur -33.5392 1.66578 11.6507
rtibia 22.9872
rfoot -7.2342 -19.2388
rtoes -0.358966
lfemur -0.0217275 -8.4197 -23.4472
ltibia 16.0644
lfoot -12.8274 -2.92634
ltoes -24.307
202
root 7.10916 18.5099 2.2431 9.66648 8.77823 5.20337
lowerback 1.40492 6.24139 -8.20835
upperback 1.45178 8.25845 -3.98597
thorax 0.167876 4.0854 0.277886
lowerneck -7.03201 -14.0206 -13.8142
upperneck 9.46196 -20.1551 20.0562
head 7.60975 -9.2081 6.46901
rclavicle 3.39922e-014 -3.06128e-014
rhumerus -1.74532 -1.45689 -112.281
rradius 7.62233
rwrist 57.766
rhand -20.1693 29.0068
rfingers 7.12502
rthumb 6.17639 -0.883151
lclavicle 3.39922e-014 -3.06128e-014
lhumerus -21.753 8.16996 87.9202
lradius 26.5597
lwrist -10.0472
lhand -20.994 10.4894
lfingers 7.12502
lthumb 5.3801 40.4011
rfemur -33.5055 2.96346 10.5276
rtibia 20.8444
rfoot -8.32034 -20.5118
rtoes 1.10915
lfemur 0.792271 -8.42127 -23.4501
ltibia 15.0149
lfoot -12.2528 -3.35004
ltoes -26.4559
203
root 7.10843 18.5026 2.42267 9.56085 8.87273 5.20213
lowerback 1.49673 6.18618 -7.98232
upperback 1.66754 8.19322 -3.84068
thorax 0.353947 4.04457 0.313842
lowerneck -7.02842 -14.039 -13.9194
upperneck 8.90125 -20.0871 20.1508
head 7.44126 -9.19797 6.52663
rclavicle 4.3832e-014 -1.47101e-014
rhumerus -2.99698 -2.82508 -111.695
rradius 6.38736
rwrist 58.0024
rhand -19.7756 26.9054
rfingers 7.12502
rthumb 6.55641 -2.97308
lclavicle 4.3832e-014 -1.47101e-014
lhumerus -22.5359 9.72922 87.3517
lradius 25.2592
lwrist -10.6565
lhand -22.7246 9.84593
lfingers 7.12502
lthumb 3.70909 39.7934
rfemur -33.4065 4.74031 9.49319
rtibia 19.2144
rfoot -9.57057 -21.5655
rtoes 3.10378
lfemur 2.3493 -8.60796 -23.45
ltibia 13.5049
lfoot -11.5158 -3.24605
ltoes -26.3868
204
root 7.10715 18.5033 2.60446 9.37649 8.86465 5.35509
lowerback 1.76413 6.15621 -7.79141
upperback 1.81145 8.13715 -3.86111
thorax 0.386432 4.01555 0.173511
lowerneck -6.97901 -14.0319 -13.5518
upperneck 8.45003 -20.0014 19.9064
head 7.20468 -9.18083 6.41237
rclavicle -6.49032e-014 2.3059e-014
rhumerus -4.21937 -4.29926 -111.128
rradius 5.50822
rwrist 58.2241
rhand -17.6829 24.8081
rfingers 7.12502
rthumb 8.57633 -4.99773
lclavicle -6.49032e-014 2.3059e-014
lhumerus -23.3306 11.3763 86.4614
lradius 23.8057
lwrist -11.4041
lhand -24.2941 10.3058
lfingers 7.12502
lthumb 2.1933 40.2742
rfemur -33.2459 6.60834 8.29126
rtibia 17.6812
rfoot -9.77657 -22.6356
rtoes 2.91497
lfemur 3.97436 -8.76477 -23.6647
ltibia 12.083
lfoot -10.7806 -3.0856
ltoes -25.7378
205
root 7.09924 18.5153 2.77953 9.5217 9.2084 5.6265
lowerback 1.93053 5.84728 -7.72174
upperback 1.80377 7.71 -3.95347
thorax 0.332234 3.80619 0.0407118
lowerneck -7.09486 -13.8943 -13.1261
upperneck 8.30035 -19.7779 19.6657
head 7.06501 -9.07352 6.30478
rclavicle 6.7885e-014 -1.27222e-014
rhumerus -5.57442 -5.47594 -110.663
rradius 5.09788
rwrist 58.5844
rhand -15.2341 23.3782
rfingers 7.12502
rthumb 10.939 -6.31683
lclavicle 6.7885e-014 -1.27222e-014
lhumerus -24.3555 13.6605 84.9919
lradius 22.3405
lwrist -12.9315
lhand -24.932 10.7633
lfingers 7.12502
lthumb 1.57726 40.7372
rfemur -33.488 7.89448 7.12458
rtibia 16.6841
rfoot -9.8783 -23.8382
rtoes -0.931835
lfemur 5.21381 -8.68103 -23.7561
ltibia 10.477
lfoot -9.71452 -3.50716
ltoes -25.8387
206
root 7.08211 18.4827 2.95025 9.575 9.68433 5.78249
lowerback 2.13308 5.43314 -7.69988
upperback 1.8548 7.14098 -3.88689
thorax 0.297846 3.52252 0.101352
lowerneck -7.26536 -13.6925 -12.9902
upperneck 8.19808 -19.4733 19.6438
head 6.99432 -8.91955 6.31929
rclavicle -3.73715e-014 -4.13472e-014
rhumerus -6.83662 -6.35602 -110.04
rradius 4.81008
rwrist 59.5372
rhand -13.9698 23.0995
rfingers 7.12502
rthumb 12.1582 -6.52717
lclavicle -3.73715e-014 -4.13472e-014
lhumerus -25.5593 15.7628 83.5373
lradius 21.2106
lwrist -13.5754
lhand -24.915 10.8516
lfingers 7.12502
lthumb 1.59362 40.8254
rfemur -33.9083 10.5986 5.23506
rtibia 15.8676
rfoot -11.0409 -26.7118
rtoes 0.742397
lfemur 6.44893 -9.09622 -23.6754
ltibia 9.11415
lfoot -8.92583 -3.54698
ltoes -25.523
207
root 7.07666 18.4778 3.15169 9.4965 9.65438 5.96029
lowerback 1.80977 5.13874 -7.93747
upperback 2.10668 6.80068 -3.67246
thorax 0.706938 3.33154 0.507677
lowerneck -7.32544 -13.5637 -13.2067
upperneck 8.04689 -19.2639 19.8081
head 6.96338 -8.82067 6.43607
rclavicle -1.37261e-013 5.20816e-014
rhumerus -7.87376 -6.97725 -109.158
rradius 4.54771
rwrist 60.5143
rhand -13.6265 23.6952
rfingers 7.12502
rthumb 12.4893 -5.91156
lclavicle -1.37261e-013 5.20816e-014
lhumerus -26.5844 18.5469 82.0627
lradius 19.7465
lwrist -13.5981
lhand -25.6329 9.84901
lfingers 7.12502
lthumb 0.900283 39.8269
rfemur -33.5521 10.5431 5.20807
rtibia 15.2103
rfoot -10.5754 -26.4731
rtoes -1.58068
lfemur 7.64918 -8.99833 -23.859
ltibia 8.31537
lfoot -8.48186 -3.54732
ltoes -25.3637
208
root 7.06344 18.4573 3.3409 9.62637 9.779 6.04977
lowerback 1.55944 4.82425 -8.04826
upperback 2.17367 6.41345 -3.49074
thorax 0.909251 3.12763 0.792871
lowerneck -7.42384 -13.5178 -13.4869
upperneck 8.19298 -19.2096 19.965
head 7.06433 -8.78318 6.53109
rclavicle 5.25785e-014 -3.1408e-014
rhumerus -8.88082 -7.75381 -108.245
rradius 4.55955
rwrist 60.6434
rhand -13.1533 24.0975
rfingers 7.12502
rthumb 12.9454 -5.48093
lclavicle 5.25785e-014 -3.1408e-014
lhumerus -27.8322 22.2051 79.9516
lradius 17.6958
lwrist -14.6234
lhand -26.651 8.81028
lfingers 7.12502
lthumb -0.0830006 38.79
rfemur -33.5037 10.8999 4.85804
rtibia 14.4951
rfoot -11.3305 -26.2229
rtoes 0.136608
lfemur 8.27898 -9.06073 -23.8144
ltibia 7.958
lfoot -7.91599 -3.59231
ltoes -25.4616
209
root 7.05051 18.4405 3.5252 9.71815 9.85655 5.90388
lowerback 1.78151 4.66871 -7.40894
upperback 1.89824 6.17003 -3.63824
thorax 0.595932 3.03064 0.27173
lowerneck -7.43137 -13.451 -13.2782
upperneck 8.60047 -19.2043 19.9325
head 7.16829 -8.75824 6.49064
rclavicle -9.34288e-015 -1.66979e-014
rhumerus -10.0237 -9.22056 -107.667
rradius 4.81323
rwrist 59.9873
rhand -12.9972 24.2384
rfingers 7.12502
rthumb 13.0959 -5.33045
lclavicle -9.34288e-015 -1.66979e-014
lhumerus -29.7592 25.2822 76.9199
lradius 15.9803
lwrist -17.2018
lhand -26.2728 10.1149
lfingers 7.12502
lthumb 0.282299 40.0945
rfemur -33.6085 10.5623 5.18143
rtibia 14.4097
rfoot -11.9126 -25.0896
rtoes 2.67851
lfemur 8.80692 -9.04256 -23.5145
ltibia 7.78194
lfoot -7.31891 -3.62993
ltoes -24.8717
